HIERARCHY
ROOT Hips
{
	OFFSET 0.000000 0.000000 0.000000 
	CHANNELS 6 Xposition Yposition Zposition Yrotation Zrotation Xrotation 
	JOINT Lumbar
	{
		OFFSET 0.000000 0.000000 0.000000 
		CHANNELS 3 Zrotation Xrotation Yrotation
		JOINT Neck
		{
			OFFSET 0.000000 0.445665 0.000000 
			CHANNELS 3 Zrotation Xrotation Yrotation
			End Site
			{
				OFFSET 0.000000 0.227535 0.000000 
			}
		}
		JOINT RightShoulder
		{
			OFFSET 0.019635 0.377685 0.194865 
			CHANNELS 3 Zrotation Xrotation Yrotation
			JOINT RightElbow
			{
				OFFSET 0.000000 -0.243375 0.000000 
				CHANNELS 2 Zrotation Yrotation
				JOINT RightWrist
				{
					OFFSET 0.000000 -0.264825 0.000000 
					CHANNELS 2 Zrotation Xrotation
					End Site
					{
						OFFSET 0.006600 -0.176220 0.000990 
					}
				}
			}
		}
		JOINT LeftShoulder
		{
			OFFSET 0.019635 0.377685 -0.194865 
			CHANNELS 3 Zrotation Xrotation Yrotation
			JOINT LeftElbow
			{
				OFFSET 0.000000 -0.243375 0.000000 
				CHANNELS 2 Zrotation Yrotation
				JOINT LeftWrist
				{
					OFFSET 0.000000 -0.264825 0.000000 
					CHANNELS 2 Zrotation Xrotation
					End Site
					{
						OFFSET 0.006600 -0.176220 -0.000990 
					}
				}
			}
		}
	}
	JOINT RightHip
	{
		OFFSET 0.052140 -0.069960 0.075570 
		CHANNELS 3 Zrotation Xrotation Yrotation
		JOINT RightKnee
		{
			OFFSET 0.000000 -0.402270 0.000000 
			CHANNELS 1 Zrotation
			JOINT RightAnkle
			{
				OFFSET 0.000000 -0.404085 0.000000 
				CHANNELS 3 Zrotation Xrotation Yrotation
				End Site
				{
					OFFSET 0.204105 -0.089430 0.008415 
				}
			}
		}
	}
	JOINT LeftHip
	{
		OFFSET 0.052140 -0.069960 -0.075570 
		CHANNELS 3 Zrotation Xrotation Yrotation
		JOINT LeftKnee
		{
			OFFSET 0.000000 -0.402270 0.000000 
			CHANNELS 1 Zrotation
			JOINT LeftAnkle
			{
				OFFSET 0.000000 -0.404085 0.000000 
				CHANNELS 3 Zrotation Xrotation Yrotation
				End Site
				{
					OFFSET 0.204105 -0.089430 -0.008415 
				}
			}
		}
	}
}
MOTION
Frames: 14
Frame Time: 0.02
0 0.95578 -0 187.18276 0 -4.52923 7.50718 4.30435 -6.00642 -16.06292 4.30654 1.14619 9.31283 -15.03773 6.59536 8.61491 86.74519 -0.92098 -0.46931 14.73759 6.98111 -8.69576 6.16652 -72.77679 -2.94245 -0.27966 -4.99962 9.10575 9.24041 -3.35643 0.74664 -3.09039 -11.00394 -5.35955 0.47747 -3.63766 -3.88739 6.47691 4.02376 5.66872
-0.00028 0.95577 3e-05 187.12881 0 -4.52992 7.55923 4.29274 -6.00527 -16.1396 4.31928 1.11701 9.44729 -14.88155 6.2486 8.66297 85.65325 -0.98976 -0.48384 14.74575 6.87569 -8.20533 6.19057 -72.88266 -3.23761 0.05292 -5.0141 9.09944 9.19215 -3.35128 0.72922 -3.25094 -10.91318 -5.42242 0.47903 -3.52931 -3.80307 6.45968 4.01035 5.60955
-0.00055 0.95576 6e-05 187.07476 0 -4.53068 7.61113 4.28132 -6.00411 -16.21596 4.33236 1.08815 9.58109 -14.72579 5.90831 8.71169 84.56992 -1.05775 -0.4988 14.75355 6.76872 -7.72964 6.21611 -72.99109 -3.5293 0.3825 -5.02853 9.09338 9.15091 -3.34617 0.71143 -3.41026 -10.8293 -5.48476 0.48054 -3.4233 -3.71968 6.44259 3.99757 5.55286
-0.00083 0.95575 8e-05 187.01868 0 -4.53191 7.66296 4.27088 -6.00228 -16.29171 4.34627 1.06066 9.71337 -14.56979 5.59145 8.76383 83.51124 -1.12266 -0.51573 14.75946 6.6559 -7.29743 6.24669 -73.1073 -3.81147 0.70256 -5.04312 9.08874 9.15235 -3.34082 0.691 -3.56502 -10.78611 -5.54578 0.48215 -3.31589 -3.63904 6.42699 3.98528 5.49698
-0.00111 0.95574 0.00011 186.97205 0 -4.53087 7.71519 4.25565 -6.00329 -16.37061 4.35501 1.02637 9.85347 -14.41456 5.15165 8.79824 82.32301 -1.2032 -0.52239 14.77475 6.57569 -6.62209 6.24919 -73.17814 -4.14585 1.07209 -5.0571 9.07714 8.94561 -3.33636 0.68337 -3.74248 -10.54409 -5.61403 0.48357 -3.2044 -3.54368 6.40476 3.96817 5.42671
-0.00138 0.95573 0.00014 186.90636 0 -4.53451 7.76652 4.25027 -5.99878 -16.44284 4.37518 1.00616 9.97705 -14.25821 4.97147 8.86987 81.4093 -1.25106 -0.55063 14.77064 6.42548 -6.4703 6.31204 -73.34768 -4.36827 1.33725 -5.07219 9.07991 9.16724 -3.33026 0.64948 -3.87274 -10.71153 -5.66678 0.48514 -3.10942 -3.47964 6.39574 3.96279 5.39378
-0.00159 0.95572 0.00018 186.77653 0 -4.55253 7.81669 4.27544 -5.97407 -16.49747 4.4243 1.02874 10.0557 -14.09148 5.53651 9.05191 81.26215 -1.20269 -0.64247 14.70735 6.0807 -7.73903 6.54136 -73.77986 -4.28694 1.30582 -5.09243 9.12688 10.72949 -3.31708 0.53243 -3.86234 -12.15651 -5.67767 0.48957 -2.98907 -3.50256 6.4318 3.97715 5.405
-0.00179 0.95572 0.00022 186.62924 0 -4.57504 7.86579 4.30999 -5.94452 -16.54542 4.48539 1.06493 10.11776 -13.92489 6.35875 9.27022 81.39058 -1.12223 -0.75539 14.62569 5.66555 -9.54084 6.83177 -74.31315 -4.09191 1.17065 -5.11349 9.18766 12.70038 -3.30259 0.39052 -3.80568 -13.99272 -5.67275 0.49383 -2.89518 -3.55701 6.47997 4.00508 5.46186
-0.00198 0.95571 0.00026 186.49751 0 -4.59454 7.9146 4.33805 -5.92059 -16.59576 4.54293 1.09228 10.18693 -13.76262 7.04611 9.46735 81.38707 -1.06049 -0.85628 14.5557 5.28244 -11.11893 7.09487 -74.80827 -3.94472 1.08819 -5.13279 9.23912 14.37935 -3.29044 0.26697 -3.77752 -15.55217 -5.67446 0.49646 -2.83922 -3.5968 6.51661 4.03583 5.53996
-0.00221 0.95571 0.0003 186.33437 0 -4.61807 7.96663 4.37536 -5.88287 -16.64821 4.59296 1.13046 10.2574 -13.5814 7.81075 9.6847 81.41126 -0.98197 -0.96782 14.47071 4.89732 -12.62506 7.35661 -75.27395 -3.81199 0.98175 -5.15772 9.30302 16.49232 -3.27131 0.11436 -3.71983 -17.51586 -5.67851 0.50583 -2.58529 -3.63809 6.57733 4.03116 5.45286
-0.00237 0.9557 0.00034 186.23154 0 -4.63437 8.01176 4.39583 -5.87193 -16.69548 4.66085 1.14978 10.32185 -13.44027 8.47377 9.86803 81.44404 -0.92993 -1.06178 14.41387 4.50192 -14.39961 7.63495 -75.82062 -3.62431 0.90119 -5.17138 9.34479 17.81609 -3.26595 0.01545 -3.71013 -18.7472 -5.67395 0.5017 -2.73386 -3.68361 6.59246 4.10034 5.70563
-0.00237 0.9557 0.0004 186.30802 0 -4.62878 8.03771 4.36576 -5.94287 -16.72377 4.78072 1.10969 10.36894 -13.40496 8.80906 9.95331 81.4257 -0.96618 -1.10562 14.42862 4.07599 -16.85279 7.95028 -76.6035 -3.29357 0.91192 -5.15146 9.31766 16.70413 -3.30303 0.07887 -3.86656 -17.71253 -5.64913 0.45536 -4.12817 -3.73406 6.46398 4.3975 7.01754
-0.0023 0.95569 0.00045 186.4443 0 -4.6159 8.05683 4.31869 -6.03968 -16.74858 4.91719 1.05089 10.41173 -13.41098 9.03079 10.00228 81.4078 -1.02893 -1.13044 14.47455 3.6458 -19.54367 8.2788 -77.45738 -2.91475 0.95287 -5.12054 9.26848 14.80932 -3.35333 0.19586 -4.06917 -15.95131 -5.61626 0.39629 -5.90225 -3.78746 6.29172 4.76372 8.64716
-0.00226 0.95568 0.00049 186.54756 0 -4.60694 8.07933 4.28062 -6.12021 -16.77878 5.04227 1.00328 10.45929 -13.40116 9.29352 10.06465 81.39461 -1.07458 -1.16151 14.51288 3.23018 -22.08299 8.59764 -78.25436 -2.57087 0.98419 -5.09622 9.23243 13.38043 -3.39483 0.28285 -4.23545 -14.62458 -5.58727 0.34642 -7.40766 -3.83892 6.14946 5.07995 10.0425
